  0
SECTION
  2
BLOCKS
  0
ENDSEC
  0
SECTION
  2
ENTITIES
  0
LINE
  8
0
 10
109.672
 20
0.0305634
 11
110.289
 21
0.122009
  0
LINE
  8
0
 10
110.289
 20
0.122009
 11
110.893
 21
0.273422
  0
LINE
  8
0
 10
110.893
 20
0.273422
 11
111.48
 21
0.483353
  0
LINE
  8
0
 10
111.48
 20
0.483353
 11
112.043
 21
0.749786
  0
LINE
  8
0
 10
112.043
 20
0.749786
 11
112.578
 21
1.07016
  0
LINE
  8
0
 10
112.578
 20
1.07016
 11
113.078
 21
1.44138
  0
LINE
  8
0
 10
113.078
 20
1.44138
 11
113.54
 21
1.85986
  0
LINE
  8
0
 10
113.54
 20
1.85986
 11
113.959
 21
2.32159
  0
LINE
  8
0
 10
113.959
 20
2.32159
 11
114.33
 21
2.82213
  0
LINE
  8
0
 10
114.33
 20
2.82213
 11
114.65
 21
3.35663
  0
LINE
  8
0
 10
114.65
 20
3.35663
 11
114.917
 21
3.91995
  0
LINE
  8
0
 10
114.917
 20
3.91995
 11
115.127
 21
4.50668
  0
LINE
  8
0
 10
115.127
 20
4.50668
 11
115.278
 21
5.11118
  0
LINE
  8
0
 10
115.278
 20
5.11118
 11
115.369
 21
5.72758
  0
LINE
  8
0
 10
115.369
 20
5.72758
 11
115.4
 21
6.34999
  0
LINE
  8
0
 10
115.4
 20
6.34999
 11
115.4
 21
112.55
  0
LINE
  8
0
 10
115.4
 20
112.55
 11
115.369
 21
113.172
  0
LINE
  8
0
 10
115.369
 20
113.172
 11
115.278
 21
113.789
  0
LINE
  8
0
 10
115.278
 20
113.789
 11
115.127
 21
114.393
  0
LINE
  8
0
 10
115.127
 20
114.393
 11
114.917
 21
114.98
  0
LINE
  8
0
 10
114.917
 20
114.98
 11
114.65
 21
115.543
  0
LINE
  8
0
 10
114.65
 20
115.543
 11
114.33
 21
116.078
  0
LINE
  8
0
 10
114.33
 20
116.078
 11
113.959
 21
116.578
  0
LINE
  8
0
 10
113.959
 20
116.578
 11
113.54
 21
117.04
  0
LINE
  8
0
 10
113.54
 20
117.04
 11
113.078
 21
117.459
  0
LINE
  8
0
 10
113.078
 20
117.459
 11
112.578
 21
117.83
  0
LINE
  8
0
 10
112.578
 20
117.83
 11
112.043
 21
118.15
  0
LINE
  8
0
 10
112.043
 20
118.15
 11
111.48
 21
118.417
  0
LINE
  8
0
 10
111.48
 20
118.417
 11
110.893
 21
118.627
  0
LINE
  8
0
 10
110.893
 20
118.627
 11
110.289
 21
118.778
  0
LINE
  8
0
 10
110.289
 20
118.778
 11
109.672
 21
118.869
  0
LINE
  8
0
 10
109.672
 20
118.869
 11
109.05
 21
118.9
  0
LINE
  8
0
 10
109.05
 20
118.9
 11
6.34999
 21
118.9
  0
LINE
  8
0
 10
6.34999
 20
118.9
 11
5.72758
 21
118.869
  0
LINE
  8
0
 10
5.72758
 20
118.869
 11
5.11118
 21
118.778
  0
LINE
  8
0
 10
5.11118
 20
118.778
 11
4.50668
 21
118.627
  0
LINE
  8
0
 10
4.50668
 20
118.627
 11
3.91995
 21
118.417
  0
LINE
  8
0
 10
3.91995
 20
118.417
 11
3.35663
 21
118.15
  0
LINE
  8
0
 10
3.35663
 20
118.15
 11
2.82213
 21
117.83
  0
LINE
  8
0
 10
2.82213
 20
117.83
 11
2.32159
 21
117.459
  0
LINE
  8
0
 10
2.32159
 20
117.459
 11
1.85986
 21
117.04
  0
LINE
  8
0
 10
1.85986
 20
117.04
 11
1.44138
 21
116.578
  0
LINE
  8
0
 10
1.44138
 20
116.578
 11
1.07016
 21
116.078
  0
LINE
  8
0
 10
1.07016
 20
116.078
 11
0.749786
 21
115.543
  0
LINE
  8
0
 10
0.749786
 20
115.543
 11
0.483353
 21
114.98
  0
LINE
  8
0
 10
0.483353
 20
114.98
 11
0.273422
 21
114.393
  0
LINE
  8
0
 10
0.273422
 20
114.393
 11
0.122009
 21
113.789
  0
LINE
  8
0
 10
0.122009
 20
113.789
 11
0.0305634
 21
113.172
  0
LINE
  8
0
 10
0.0305634
 20
113.172
 11
0
 21
112.55
  0
LINE
  8
0
 10
0
 20
112.55
 11
0
 21
6.34999
  0
LINE
  8
0
 10
0
 20
6.34999
 11
0.0305634
 21
5.72758
  0
LINE
  8
0
 10
0.0305634
 20
5.72758
 11
0.122009
 21
5.11118
  0
LINE
  8
0
 10
0.122009
 20
5.11118
 11
0.273422
 21
4.50668
  0
LINE
  8
0
 10
0.273422
 20
4.50668
 11
0.483353
 21
3.91995
  0
LINE
  8
0
 10
0.483353
 20
3.91995
 11
0.749786
 21
3.35663
  0
LINE
  8
0
 10
0.749786
 20
3.35663
 11
1.07016
 21
2.82213
  0
LINE
  8
0
 10
1.07016
 20
2.82213
 11
1.44138
 21
2.32159
  0
LINE
  8
0
 10
1.44138
 20
2.32159
 11
1.85986
 21
1.85986
  0
LINE
  8
0
 10
1.85986
 20
1.85986
 11
2.32159
 21
1.44138
  0
LINE
  8
0
 10
2.32159
 20
1.44138
 11
2.82213
 21
1.07016
  0
LINE
  8
0
 10
2.82213
 20
1.07016
 11
3.35663
 21
0.749786
  0
LINE
  8
0
 10
3.35663
 20
0.749786
 11
3.91995
 21
0.483353
  0
LINE
  8
0
 10
3.91995
 20
0.483353
 11
4.50668
 21
0.273422
  0
LINE
  8
0
 10
4.50668
 20
0.273422
 11
5.11118
 21
0.122009
  0
LINE
  8
0
 10
5.11118
 20
0.122009
 11
5.72758
 21
0.0305634
  0
LINE
  8
0
 10
5.72758
 20
0.0305634
 11
6.34999
 21
0
  0
LINE
  8
0
 10
6.34999
 20
0
 11
109.05
 21
0
  0
LINE
  8
0
 10
109.05
 20
0
 11
109.672
 21
0.0305634
  0
LINE
  8
0
 10
6.17847
 20
110.808
 11
6.00859
 21
110.834
  0
LINE
  8
0
 10
6.00859
 20
110.834
 11
5.842
 21
110.875
  0
LINE
  8
0
 10
5.842
 20
110.875
 11
5.6803
 21
110.933
  0
LINE
  8
0
 10
5.6803
 20
110.933
 11
5.52505
 21
111.007
  0
LINE
  8
0
 10
5.52505
 20
111.007
 11
5.37775
 21
111.095
  0
LINE
  8
0
 10
5.37775
 20
111.095
 11
5.23981
 21
111.197
  0
LINE
  8
0
 10
5.23981
 20
111.197
 11
5.11255
 21
111.313
  0
LINE
  8
0
 10
5.11255
 20
111.313
 11
4.99722
 21
111.44
  0
LINE
  8
0
 10
4.99722
 20
111.44
 11
4.89493
 21
111.578
  0
LINE
  8
0
 10
4.89493
 20
111.578
 11
4.80663
 21
111.725
  0
LINE
  8
0
 10
4.80663
 20
111.725
 11
4.7332
 21
111.88
  0
LINE
  8
0
 10
4.7332
 20
111.88
 11
4.67535
 21
112.042
  0
LINE
  8
0
 10
4.67535
 20
112.042
 11
4.63362
 21
112.209
  0
LINE
  8
0
 10
4.63362
 20
112.209
 11
4.60841
 21
112.378
  0
LINE
  8
0
 10
4.60841
 20
112.378
 11
4.59999
 21
112.55
  0
LINE
  8
0
 10
4.59999
 20
112.55
 11
4.60841
 21
112.722
  0
LINE
  8
0
 10
4.60841
 20
112.722
 11
4.63362
 21
112.891
  0
LINE
  8
0
 10
4.63362
 20
112.891
 11
4.67535
 21
113.058
  0
LINE
  8
0
 10
4.67535
 20
113.058
 11
4.7332
 21
113.22
  0
LINE
  8
0
 10
4.7332
 20
113.22
 11
4.80663
 21
113.375
  0
LINE
  8
0
 10
4.80663
 20
113.375
 11
4.89493
 21
113.522
  0
LINE
  8
0
 10
4.89493
 20
113.522
 11
4.99722
 21
113.66
  0
LINE
  8
0
 10
4.99722
 20
113.66
 11
5.11255
 21
113.787
  0
LINE
  8
0
 10
5.11255
 20
113.787
 11
5.23981
 21
113.903
  0
LINE
  8
0
 10
5.23981
 20
113.903
 11
5.37775
 21
114.005
  0
LINE
  8
0
 10
5.37775
 20
114.005
 11
5.52505
 21
114.093
  0
LINE
  8
0
 10
5.52505
 20
114.093
 11
5.6803
 21
114.167
  0
LINE
  8
0
 10
5.6803
 20
114.167
 11
5.842
 21
114.225
  0
LINE
  8
0
 10
5.842
 20
114.225
 11
6.00859
 21
114.266
  0
LINE
  8
0
 10
6.00859
 20
114.266
 11
6.17847
 21
114.292
  0
LINE
  8
0
 10
6.17847
 20
114.292
 11
6.34999
 21
114.3
  0
LINE
  8
0
 10
6.34999
 20
114.3
 11
6.52151
 21
114.292
  0
LINE
  8
0
 10
6.52151
 20
114.292
 11
6.69141
 21
114.266
  0
LINE
  8
0
 10
6.69141
 20
114.266
 11
6.85799
 21
114.225
  0
LINE
  8
0
 10
6.85799
 20
114.225
 11
7.01968
 21
114.167
  0
LINE
  8
0
 10
7.01968
 20
114.167
 11
7.17494
 21
114.093
  0
LINE
  8
0
 10
7.17494
 20
114.093
 11
7.32224
 21
114.005
  0
LINE
  8
0
 10
7.32224
 20
114.005
 11
7.46017
 21
113.903
  0
LINE
  8
0
 10
7.46017
 20
113.903
 11
7.58743
 21
113.787
  0
LINE
  8
0
 10
7.58743
 20
113.787
 11
7.70276
 21
113.66
  0
LINE
  8
0
 10
7.70276
 20
113.66
 11
7.80507
 21
113.522
  0
LINE
  8
0
 10
7.80507
 20
113.522
 11
7.89336
 21
113.375
  0
LINE
  8
0
 10
7.89336
 20
113.375
 11
7.96678
 21
113.22
  0
LINE
  8
0
 10
7.96678
 20
113.22
 11
8.02464
 21
113.058
  0
LINE
  8
0
 10
8.02464
 20
113.058
 11
8.06636
 21
112.891
  0
LINE
  8
0
 10
8.06636
 20
112.891
 11
8.09157
 21
112.722
  0
LINE
  8
0
 10
8.09157
 20
112.722
 11
8.09999
 21
112.55
  0
LINE
  8
0
 10
8.09999
 20
112.55
 11
8.09157
 21
112.378
  0
LINE
  8
0
 10
8.09157
 20
112.378
 11
8.06636
 21
112.209
  0
LINE
  8
0
 10
8.06636
 20
112.209
 11
8.02464
 21
112.042
  0
LINE
  8
0
 10
8.02464
 20
112.042
 11
7.96678
 21
111.88
  0
LINE
  8
0
 10
7.96678
 20
111.88
 11
7.89336
 21
111.725
  0
LINE
  8
0
 10
7.89336
 20
111.725
 11
7.80507
 21
111.578
  0
LINE
  8
0
 10
7.80507
 20
111.578
 11
7.70276
 21
111.44
  0
LINE
  8
0
 10
7.70276
 20
111.44
 11
7.58743
 21
111.313
  0
LINE
  8
0
 10
7.58743
 20
111.313
 11
7.46017
 21
111.197
  0
LINE
  8
0
 10
7.46017
 20
111.197
 11
7.32224
 21
111.095
  0
LINE
  8
0
 10
7.32224
 20
111.095
 11
7.17494
 21
111.007
  0
LINE
  8
0
 10
7.17494
 20
111.007
 11
7.01968
 21
110.933
  0
LINE
  8
0
 10
7.01968
 20
110.933
 11
6.85799
 21
110.875
  0
LINE
  8
0
 10
6.85799
 20
110.875
 11
6.69141
 21
110.834
  0
LINE
  8
0
 10
6.69141
 20
110.834
 11
6.52151
 21
110.808
  0
LINE
  8
0
 10
6.52151
 20
110.808
 11
6.34999
 21
110.8
  0
LINE
  8
0
 10
6.34999
 20
110.8
 11
6.17847
 21
110.808
  0
LINE
  8
0
 10
108.878
 20
110.808
 11
108.709
 21
110.834
  0
LINE
  8
0
 10
108.709
 20
110.834
 11
108.542
 21
110.875
  0
LINE
  8
0
 10
108.542
 20
110.875
 11
108.38
 21
110.933
  0
LINE
  8
0
 10
108.38
 20
110.933
 11
108.225
 21
111.007
  0
LINE
  8
0
 10
108.225
 20
111.007
 11
108.078
 21
111.095
  0
LINE
  8
0
 10
108.078
 20
111.095
 11
107.94
 21
111.197
  0
LINE
  8
0
 10
107.94
 20
111.197
 11
107.813
 21
111.313
  0
LINE
  8
0
 10
107.813
 20
111.313
 11
107.697
 21
111.44
  0
LINE
  8
0
 10
107.697
 20
111.44
 11
107.595
 21
111.578
  0
LINE
  8
0
 10
107.595
 20
111.578
 11
107.507
 21
111.725
  0
LINE
  8
0
 10
107.507
 20
111.725
 11
107.433
 21
111.88
  0
LINE
  8
0
 10
107.433
 20
111.88
 11
107.375
 21
112.042
  0
LINE
  8
0
 10
107.375
 20
112.042
 11
107.334
 21
112.209
  0
LINE
  8
0
 10
107.334
 20
112.209
 11
107.308
 21
112.378
  0
LINE
  8
0
 10
107.308
 20
112.378
 11
107.3
 21
112.55
  0
LINE
  8
0
 10
107.3
 20
112.55
 11
107.308
 21
112.722
  0
LINE
  8
0
 10
107.308
 20
112.722
 11
107.334
 21
112.891
  0
LINE
  8
0
 10
107.334
 20
112.891
 11
107.375
 21
113.058
  0
LINE
  8
0
 10
107.375
 20
113.058
 11
107.433
 21
113.22
  0
LINE
  8
0
 10
107.433
 20
113.22
 11
107.507
 21
113.375
  0
LINE
  8
0
 10
107.507
 20
113.375
 11
107.595
 21
113.522
  0
LINE
  8
0
 10
107.595
 20
113.522
 11
107.697
 21
113.66
  0
LINE
  8
0
 10
107.697
 20
113.66
 11
107.813
 21
113.787
  0
LINE
  8
0
 10
107.813
 20
113.787
 11
107.94
 21
113.903
  0
LINE
  8
0
 10
107.94
 20
113.903
 11
108.078
 21
114.005
  0
LINE
  8
0
 10
108.078
 20
114.005
 11
108.225
 21
114.093
  0
LINE
  8
0
 10
108.225
 20
114.093
 11
108.38
 21
114.167
  0
LINE
  8
0
 10
108.38
 20
114.167
 11
108.542
 21
114.225
  0
LINE
  8
0
 10
108.542
 20
114.225
 11
108.709
 21
114.266
  0
LINE
  8
0
 10
108.709
 20
114.266
 11
108.878
 21
114.292
  0
LINE
  8
0
 10
108.878
 20
114.292
 11
109.05
 21
114.3
  0
LINE
  8
0
 10
109.05
 20
114.3
 11
109.222
 21
114.292
  0
LINE
  8
0
 10
109.222
 20
114.292
 11
109.391
 21
114.266
  0
LINE
  8
0
 10
109.391
 20
114.266
 11
109.558
 21
114.225
  0
LINE
  8
0
 10
109.558
 20
114.225
 11
109.72
 21
114.167
  0
LINE
  8
0
 10
109.72
 20
114.167
 11
109.875
 21
114.093
  0
LINE
  8
0
 10
109.875
 20
114.093
 11
110.022
 21
114.005
  0
LINE
  8
0
 10
110.022
 20
114.005
 11
110.16
 21
113.903
  0
LINE
  8
0
 10
110.16
 20
113.903
 11
110.287
 21
113.787
  0
LINE
  8
0
 10
110.287
 20
113.787
 11
110.403
 21
113.66
  0
LINE
  8
0
 10
110.403
 20
113.66
 11
110.505
 21
113.522
  0
LINE
  8
0
 10
110.505
 20
113.522
 11
110.593
 21
113.375
  0
LINE
  8
0
 10
110.593
 20
113.375
 11
110.667
 21
113.22
  0
LINE
  8
0
 10
110.667
 20
113.22
 11
110.725
 21
113.058
  0
LINE
  8
0
 10
110.725
 20
113.058
 11
110.766
 21
112.891
  0
LINE
  8
0
 10
110.766
 20
112.891
 11
110.792
 21
112.722
  0
LINE
  8
0
 10
110.792
 20
112.722
 11
110.8
 21
112.55
  0
LINE
  8
0
 10
110.8
 20
112.55
 11
110.792
 21
112.378
  0
LINE
  8
0
 10
110.792
 20
112.378
 11
110.766
 21
112.209
  0
LINE
  8
0
 10
110.766
 20
112.209
 11
110.725
 21
112.042
  0
LINE
  8
0
 10
110.725
 20
112.042
 11
110.667
 21
111.88
  0
LINE
  8
0
 10
110.667
 20
111.88
 11
110.593
 21
111.725
  0
LINE
  8
0
 10
110.593
 20
111.725
 11
110.505
 21
111.578
  0
LINE
  8
0
 10
110.505
 20
111.578
 11
110.403
 21
111.44
  0
LINE
  8
0
 10
110.403
 20
111.44
 11
110.287
 21
111.313
  0
LINE
  8
0
 10
110.287
 20
111.313
 11
110.16
 21
111.197
  0
LINE
  8
0
 10
110.16
 20
111.197
 11
110.022
 21
111.095
  0
LINE
  8
0
 10
110.022
 20
111.095
 11
109.875
 21
111.007
  0
LINE
  8
0
 10
109.875
 20
111.007
 11
109.72
 21
110.933
  0
LINE
  8
0
 10
109.72
 20
110.933
 11
109.558
 21
110.875
  0
LINE
  8
0
 10
109.558
 20
110.875
 11
109.391
 21
110.834
  0
LINE
  8
0
 10
109.391
 20
110.834
 11
109.222
 21
110.808
  0
LINE
  8
0
 10
109.222
 20
110.808
 11
109.05
 21
110.8
  0
LINE
  8
0
 10
109.05
 20
110.8
 11
108.878
 21
110.808
  0
LINE
  8
0
 10
12.7
 20
12.7
 11
12.7
 21
106.2
  0
LINE
  8
0
 10
12.7
 20
106.2
 11
102.7
 21
106.2
  0
LINE
  8
0
 10
102.7
 20
106.2
 11
102.7
 21
12.7
  0
LINE
  8
0
 10
102.7
 20
12.7
 11
12.7
 21
12.7
  0
LINE
  8
0
 10
6.17847
 20
4.60841
 11
6.00859
 21
4.63362
  0
LINE
  8
0
 10
6.00859
 20
4.63362
 11
5.842
 21
4.67535
  0
LINE
  8
0
 10
5.842
 20
4.67535
 11
5.6803
 21
4.7332
  0
LINE
  8
0
 10
5.6803
 20
4.7332
 11
5.52505
 21
4.80663
  0
LINE
  8
0
 10
5.52505
 20
4.80663
 11
5.37775
 21
4.89493
  0
LINE
  8
0
 10
5.37775
 20
4.89493
 11
5.23981
 21
4.99722
  0
LINE
  8
0
 10
5.23981
 20
4.99722
 11
5.11255
 21
5.11255
  0
LINE
  8
0
 10
5.11255
 20
5.11255
 11
4.99722
 21
5.23981
  0
LINE
  8
0
 10
4.99722
 20
5.23981
 11
4.89493
 21
5.37775
  0
LINE
  8
0
 10
4.89493
 20
5.37775
 11
4.80663
 21
5.52505
  0
LINE
  8
0
 10
4.80663
 20
5.52505
 11
4.7332
 21
5.6803
  0
LINE
  8
0
 10
4.7332
 20
5.6803
 11
4.67535
 21
5.842
  0
LINE
  8
0
 10
4.67535
 20
5.842
 11
4.63362
 21
6.00859
  0
LINE
  8
0
 10
4.63362
 20
6.00859
 11
4.60841
 21
6.17847
  0
LINE
  8
0
 10
4.60841
 20
6.17847
 11
4.59999
 21
6.34999
  0
LINE
  8
0
 10
4.59999
 20
6.34999
 11
4.60841
 21
6.52151
  0
LINE
  8
0
 10
4.60841
 20
6.52151
 11
4.63362
 21
6.69141
  0
LINE
  8
0
 10
4.63362
 20
6.69141
 11
4.67535
 21
6.85799
  0
LINE
  8
0
 10
4.67535
 20
6.85799
 11
4.7332
 21
7.01968
  0
LINE
  8
0
 10
4.7332
 20
7.01968
 11
4.80663
 21
7.17494
  0
LINE
  8
0
 10
4.80663
 20
7.17494
 11
4.89493
 21
7.32224
  0
LINE
  8
0
 10
4.89493
 20
7.32224
 11
4.99722
 21
7.46017
  0
LINE
  8
0
 10
4.99722
 20
7.46017
 11
5.11255
 21
7.58743
  0
LINE
  8
0
 10
5.11255
 20
7.58743
 11
5.23981
 21
7.70276
  0
LINE
  8
0
 10
5.23981
 20
7.70276
 11
5.37775
 21
7.80507
  0
LINE
  8
0
 10
5.37775
 20
7.80507
 11
5.52505
 21
7.89336
  0
LINE
  8
0
 10
5.52505
 20
7.89336
 11
5.6803
 21
7.96678
  0
LINE
  8
0
 10
5.6803
 20
7.96678
 11
5.842
 21
8.02464
  0
LINE
  8
0
 10
5.842
 20
8.02464
 11
6.00859
 21
8.06636
  0
LINE
  8
0
 10
6.00859
 20
8.06636
 11
6.17847
 21
8.09157
  0
LINE
  8
0
 10
6.17847
 20
8.09157
 11
6.34999
 21
8.09999
  0
LINE
  8
0
 10
6.34999
 20
8.09999
 11
6.52151
 21
8.09157
  0
LINE
  8
0
 10
6.52151
 20
8.09157
 11
6.69141
 21
8.06636
  0
LINE
  8
0
 10
6.69141
 20
8.06636
 11
6.85799
 21
8.02464
  0
LINE
  8
0
 10
6.85799
 20
8.02464
 11
7.01968
 21
7.96678
  0
LINE
  8
0
 10
7.01968
 20
7.96678
 11
7.17494
 21
7.89336
  0
LINE
  8
0
 10
7.17494
 20
7.89336
 11
7.32224
 21
7.80507
  0
LINE
  8
0
 10
7.32224
 20
7.80507
 11
7.46017
 21
7.70276
  0
LINE
  8
0
 10
7.46017
 20
7.70276
 11
7.58743
 21
7.58743
  0
LINE
  8
0
 10
7.58743
 20
7.58743
 11
7.70276
 21
7.46017
  0
LINE
  8
0
 10
7.70276
 20
7.46017
 11
7.80507
 21
7.32224
  0
LINE
  8
0
 10
7.80507
 20
7.32224
 11
7.89336
 21
7.17494
  0
LINE
  8
0
 10
7.89336
 20
7.17494
 11
7.96678
 21
7.01968
  0
LINE
  8
0
 10
7.96678
 20
7.01968
 11
8.02464
 21
6.85799
  0
LINE
  8
0
 10
8.02464
 20
6.85799
 11
8.06636
 21
6.69141
  0
LINE
  8
0
 10
8.06636
 20
6.69141
 11
8.09157
 21
6.52151
  0
LINE
  8
0
 10
8.09157
 20
6.52151
 11
8.09999
 21
6.34999
  0
LINE
  8
0
 10
8.09999
 20
6.34999
 11
8.09157
 21
6.17847
  0
LINE
  8
0
 10
8.09157
 20
6.17847
 11
8.06636
 21
6.00859
  0
LINE
  8
0
 10
8.06636
 20
6.00859
 11
8.02464
 21
5.842
  0
LINE
  8
0
 10
8.02464
 20
5.842
 11
7.96678
 21
5.6803
  0
LINE
  8
0
 10
7.96678
 20
5.6803
 11
7.89336
 21
5.52505
  0
LINE
  8
0
 10
7.89336
 20
5.52505
 11
7.80507
 21
5.37775
  0
LINE
  8
0
 10
7.80507
 20
5.37775
 11
7.70276
 21
5.23981
  0
LINE
  8
0
 10
7.70276
 20
5.23981
 11
7.58743
 21
5.11255
  0
LINE
  8
0
 10
7.58743
 20
5.11255
 11
7.46017
 21
4.99722
  0
LINE
  8
0
 10
7.46017
 20
4.99722
 11
7.32224
 21
4.89493
  0
LINE
  8
0
 10
7.32224
 20
4.89493
 11
7.17494
 21
4.80663
  0
LINE
  8
0
 10
7.17494
 20
4.80663
 11
7.01968
 21
4.7332
  0
LINE
  8
0
 10
7.01968
 20
4.7332
 11
6.85799
 21
4.67535
  0
LINE
  8
0
 10
6.85799
 20
4.67535
 11
6.69141
 21
4.63362
  0
LINE
  8
0
 10
6.69141
 20
4.63362
 11
6.52151
 21
4.60841
  0
LINE
  8
0
 10
6.52151
 20
4.60841
 11
6.34999
 21
4.59999
  0
LINE
  8
0
 10
6.34999
 20
4.59999
 11
6.17847
 21
4.60841
  0
LINE
  8
0
 10
108.878
 20
4.60841
 11
108.709
 21
4.63362
  0
LINE
  8
0
 10
108.709
 20
4.63362
 11
108.542
 21
4.67535
  0
LINE
  8
0
 10
108.542
 20
4.67535
 11
108.38
 21
4.7332
  0
LINE
  8
0
 10
108.38
 20
4.7332
 11
108.225
 21
4.80663
  0
LINE
  8
0
 10
108.225
 20
4.80663
 11
108.078
 21
4.89493
  0
LINE
  8
0
 10
108.078
 20
4.89493
 11
107.94
 21
4.99722
  0
LINE
  8
0
 10
107.94
 20
4.99722
 11
107.813
 21
5.11255
  0
LINE
  8
0
 10
107.813
 20
5.11255
 11
107.697
 21
5.23981
  0
LINE
  8
0
 10
107.697
 20
5.23981
 11
107.595
 21
5.37775
  0
LINE
  8
0
 10
107.595
 20
5.37775
 11
107.507
 21
5.52505
  0
LINE
  8
0
 10
107.507
 20
5.52505
 11
107.433
 21
5.6803
  0
LINE
  8
0
 10
107.433
 20
5.6803
 11
107.375
 21
5.842
  0
LINE
  8
0
 10
107.375
 20
5.842
 11
107.334
 21
6.00859
  0
LINE
  8
0
 10
107.334
 20
6.00859
 11
107.308
 21
6.17847
  0
LINE
  8
0
 10
107.308
 20
6.17847
 11
107.3
 21
6.34999
  0
LINE
  8
0
 10
107.3
 20
6.34999
 11
107.308
 21
6.52151
  0
LINE
  8
0
 10
107.308
 20
6.52151
 11
107.334
 21
6.69141
  0
LINE
  8
0
 10
107.334
 20
6.69141
 11
107.375
 21
6.85799
  0
LINE
  8
0
 10
107.375
 20
6.85799
 11
107.433
 21
7.01968
  0
LINE
  8
0
 10
107.433
 20
7.01968
 11
107.507
 21
7.17494
  0
LINE
  8
0
 10
107.507
 20
7.17494
 11
107.595
 21
7.32224
  0
LINE
  8
0
 10
107.595
 20
7.32224
 11
107.697
 21
7.46017
  0
LINE
  8
0
 10
107.697
 20
7.46017
 11
107.813
 21
7.58743
  0
LINE
  8
0
 10
107.813
 20
7.58743
 11
107.94
 21
7.70276
  0
LINE
  8
0
 10
107.94
 20
7.70276
 11
108.078
 21
7.80507
  0
LINE
  8
0
 10
108.078
 20
7.80507
 11
108.225
 21
7.89336
  0
LINE
  8
0
 10
108.225
 20
7.89336
 11
108.38
 21
7.96678
  0
LINE
  8
0
 10
108.38
 20
7.96678
 11
108.542
 21
8.02464
  0
LINE
  8
0
 10
108.542
 20
8.02464
 11
108.709
 21
8.06636
  0
LINE
  8
0
 10
108.709
 20
8.06636
 11
108.878
 21
8.09157
  0
LINE
  8
0
 10
108.878
 20
8.09157
 11
109.05
 21
8.09999
  0
LINE
  8
0
 10
109.05
 20
8.09999
 11
109.222
 21
8.09157
  0
LINE
  8
0
 10
109.222
 20
8.09157
 11
109.391
 21
8.06636
  0
LINE
  8
0
 10
109.391
 20
8.06636
 11
109.558
 21
8.02464
  0
LINE
  8
0
 10
109.558
 20
8.02464
 11
109.72
 21
7.96678
  0
LINE
  8
0
 10
109.72
 20
7.96678
 11
109.875
 21
7.89336
  0
LINE
  8
0
 10
109.875
 20
7.89336
 11
110.022
 21
7.80507
  0
LINE
  8
0
 10
110.022
 20
7.80507
 11
110.16
 21
7.70276
  0
LINE
  8
0
 10
110.16
 20
7.70276
 11
110.287
 21
7.58743
  0
LINE
  8
0
 10
110.287
 20
7.58743
 11
110.403
 21
7.46017
  0
LINE
  8
0
 10
110.403
 20
7.46017
 11
110.505
 21
7.32224
  0
LINE
  8
0
 10
110.505
 20
7.32224
 11
110.593
 21
7.17494
  0
LINE
  8
0
 10
110.593
 20
7.17494
 11
110.667
 21
7.01968
  0
LINE
  8
0
 10
110.667
 20
7.01968
 11
110.725
 21
6.85799
  0
LINE
  8
0
 10
110.725
 20
6.85799
 11
110.766
 21
6.69141
  0
LINE
  8
0
 10
110.766
 20
6.69141
 11
110.792
 21
6.52151
  0
LINE
  8
0
 10
110.792
 20
6.52151
 11
110.8
 21
6.34999
  0
LINE
  8
0
 10
110.8
 20
6.34999
 11
110.792
 21
6.17847
  0
LINE
  8
0
 10
110.792
 20
6.17847
 11
110.766
 21
6.00859
  0
LINE
  8
0
 10
110.766
 20
6.00859
 11
110.725
 21
5.842
  0
LINE
  8
0
 10
110.725
 20
5.842
 11
110.667
 21
5.6803
  0
LINE
  8
0
 10
110.667
 20
5.6803
 11
110.593
 21
5.52505
  0
LINE
  8
0
 10
110.593
 20
5.52505
 11
110.505
 21
5.37775
  0
LINE
  8
0
 10
110.505
 20
5.37775
 11
110.403
 21
5.23981
  0
LINE
  8
0
 10
110.403
 20
5.23981
 11
110.287
 21
5.11255
  0
LINE
  8
0
 10
110.287
 20
5.11255
 11
110.16
 21
4.99722
  0
LINE
  8
0
 10
110.16
 20
4.99722
 11
110.022
 21
4.89493
  0
LINE
  8
0
 10
110.022
 20
4.89493
 11
109.875
 21
4.80663
  0
LINE
  8
0
 10
109.875
 20
4.80663
 11
109.72
 21
4.7332
  0
LINE
  8
0
 10
109.72
 20
4.7332
 11
109.558
 21
4.67535
  0
LINE
  8
0
 10
109.558
 20
4.67535
 11
109.391
 21
4.63362
  0
LINE
  8
0
 10
109.391
 20
4.63362
 11
109.222
 21
4.60841
  0
LINE
  8
0
 10
109.222
 20
4.60841
 11
109.05
 21
4.59999
  0
LINE
  8
0
 10
109.05
 20
4.59999
 11
108.878
 21
4.60841
  0
ENDSEC
  0
SECTION
  2
OBJECTS
  0
DICTIONARY
  0
ENDSEC
  0
EOF
