<?xml version="1.0" standalone="no"?>
<!DOCTYPE svg PUBLIC "-//W3C//DTD SVG 1.1//EN" "http://www.w3.org/Graphics/SVG/1.1/DTD/svg11.dtd">
<svg width="116mm" height="119mm" viewBox="0 -119 116 119" xmlns="http://www.w3.org/2000/svg" version="1.1">
<title>OpenSCAD Model</title>
<path d="
M 109.672,-0.0305634 L 110.289,-0.122009 L 110.893,-0.273422 L 111.48,-0.483353 L 112.043,-0.749786 L 112.578,-1.07016
 L 113.078,-1.44138 L 113.54,-1.85986 L 113.959,-2.32159 L 114.33,-2.82213 L 114.65,-3.35663 L 114.917,-3.91995
 L 115.127,-4.50668 L 115.278,-5.11118 L 115.369,-5.72758 L 115.4,-6.34999 L 115.4,-112.55 L 115.369,-113.172
 L 115.278,-113.789 L 115.127,-114.393 L 114.917,-114.98 L 114.65,-115.543 L 114.33,-116.078 L 113.959,-116.578
 L 113.54,-117.04 L 113.078,-117.459 L 112.578,-117.83 L 112.043,-118.15 L 111.48,-118.417 L 110.893,-118.627
 L 110.289,-118.778 L 109.672,-118.869 L 109.05,-118.9 L 6.34999,-118.9 L 5.72758,-118.869 L 5.11118,-118.778
 L 4.50668,-118.627 L 3.91995,-118.417 L 3.35663,-118.15 L 2.82213,-117.83 L 2.32159,-117.459 L 1.85986,-117.04
 L 1.44138,-116.578 L 1.07016,-116.078 L 0.749786,-115.543 L 0.483353,-114.98 L 0.273422,-114.393 L 0.122009,-113.789
 L 0.0305634,-113.172 L 0,-112.55 L 0,-6.34999 L 0.0305634,-5.72758 L 0.122009,-5.11118 L 0.273422,-4.50668
 L 0.483353,-3.91995 L 0.749786,-3.35663 L 1.07016,-2.82213 L 1.44138,-2.32159 L 1.85986,-1.85986 L 2.32159,-1.44138
 L 2.82213,-1.07016 L 3.35663,-0.749786 L 3.91995,-0.483353 L 4.50668,-0.273422 L 5.11118,-0.122009 L 5.72758,-0.0305634
 L 6.34999,-0 L 109.05,-0 z
M 6.17847,-110.808 L 6.00859,-110.834 L 5.842,-110.875 L 5.6803,-110.933 L 5.52505,-111.007 L 5.37775,-111.095
 L 5.23981,-111.197 L 5.11255,-111.313 L 4.99722,-111.44 L 4.89493,-111.578 L 4.80663,-111.725 L 4.7332,-111.88
 L 4.67535,-112.042 L 4.63362,-112.209 L 4.60841,-112.378 L 4.59999,-112.55 L 4.60841,-112.722 L 4.63362,-112.891
 L 4.67535,-113.058 L 4.7332,-113.22 L 4.80663,-113.375 L 4.89493,-113.522 L 4.99722,-113.66 L 5.11255,-113.787
 L 5.23981,-113.903 L 5.37775,-114.005 L 5.52505,-114.093 L 5.6803,-114.167 L 5.842,-114.225 L 6.00859,-114.266
 L 6.17847,-114.292 L 6.34999,-114.3 L 6.52151,-114.292 L 6.69141,-114.266 L 6.85799,-114.225 L 7.01968,-114.167
 L 7.17494,-114.093 L 7.32224,-114.005 L 7.46017,-113.903 L 7.58743,-113.787 L 7.70276,-113.66 L 7.80507,-113.522
 L 7.89336,-113.375 L 7.96678,-113.22 L 8.02464,-113.058 L 8.06636,-112.891 L 8.09157,-112.722 L 8.09999,-112.55
 L 8.09157,-112.378 L 8.06636,-112.209 L 8.02464,-112.042 L 7.96678,-111.88 L 7.89336,-111.725 L 7.80507,-111.578
 L 7.70276,-111.44 L 7.58743,-111.313 L 7.46017,-111.197 L 7.32224,-111.095 L 7.17494,-111.007 L 7.01968,-110.933
 L 6.85799,-110.875 L 6.69141,-110.834 L 6.52151,-110.808 L 6.34999,-110.8 z
M 108.878,-110.808 L 108.709,-110.834 L 108.542,-110.875 L 108.38,-110.933 L 108.225,-111.007 L 108.078,-111.095
 L 107.94,-111.197 L 107.813,-111.313 L 107.697,-111.44 L 107.595,-111.578 L 107.507,-111.725 L 107.433,-111.88
 L 107.375,-112.042 L 107.334,-112.209 L 107.308,-112.378 L 107.3,-112.55 L 107.308,-112.722 L 107.334,-112.891
 L 107.375,-113.058 L 107.433,-113.22 L 107.507,-113.375 L 107.595,-113.522 L 107.697,-113.66 L 107.813,-113.787
 L 107.94,-113.903 L 108.078,-114.005 L 108.225,-114.093 L 108.38,-114.167 L 108.542,-114.225 L 108.709,-114.266
 L 108.878,-114.292 L 109.05,-114.3 L 109.222,-114.292 L 109.391,-114.266 L 109.558,-114.225 L 109.72,-114.167
 L 109.875,-114.093 L 110.022,-114.005 L 110.16,-113.903 L 110.287,-113.787 L 110.403,-113.66 L 110.505,-113.522
 L 110.593,-113.375 L 110.667,-113.22 L 110.725,-113.058 L 110.766,-112.891 L 110.792,-112.722 L 110.8,-112.55
 L 110.792,-112.378 L 110.766,-112.209 L 110.725,-112.042 L 110.667,-111.88 L 110.593,-111.725 L 110.505,-111.578
 L 110.403,-111.44 L 110.287,-111.313 L 110.16,-111.197 L 110.022,-111.095 L 109.875,-111.007 L 109.72,-110.933
 L 109.558,-110.875 L 109.391,-110.834 L 109.222,-110.808 L 109.05,-110.8 z
M 12.2,-12.2 L 12.2,-106.7 L 103.2,-106.7 L 103.2,-12.2 z
M 6.17847,-4.60841 L 6.00859,-4.63362 L 5.842,-4.67535 L 5.6803,-4.7332 L 5.52505,-4.80663 L 5.37775,-4.89493
 L 5.23981,-4.99722 L 5.11255,-5.11255 L 4.99722,-5.23981 L 4.89493,-5.37775 L 4.80663,-5.52505 L 4.7332,-5.6803
 L 4.67535,-5.842 L 4.63362,-6.00859 L 4.60841,-6.17847 L 4.59999,-6.34999 L 4.60841,-6.52151 L 4.63362,-6.69141
 L 4.67535,-6.85799 L 4.7332,-7.01968 L 4.80663,-7.17494 L 4.89493,-7.32224 L 4.99722,-7.46017 L 5.11255,-7.58743
 L 5.23981,-7.70276 L 5.37775,-7.80507 L 5.52505,-7.89336 L 5.6803,-7.96678 L 5.842,-8.02464 L 6.00859,-8.06636
 L 6.17847,-8.09157 L 6.34999,-8.09999 L 6.52151,-8.09157 L 6.69141,-8.06636 L 6.85799,-8.02464 L 7.01968,-7.96678
 L 7.17494,-7.89336 L 7.32224,-7.80507 L 7.46017,-7.70276 L 7.58743,-7.58743 L 7.70276,-7.46017 L 7.80507,-7.32224
 L 7.89336,-7.17494 L 7.96678,-7.01968 L 8.02464,-6.85799 L 8.06636,-6.69141 L 8.09157,-6.52151 L 8.09999,-6.34999
 L 8.09157,-6.17847 L 8.06636,-6.00859 L 8.02464,-5.842 L 7.96678,-5.6803 L 7.89336,-5.52505 L 7.80507,-5.37775
 L 7.70276,-5.23981 L 7.58743,-5.11255 L 7.46017,-4.99722 L 7.32224,-4.89493 L 7.17494,-4.80663 L 7.01968,-4.7332
 L 6.85799,-4.67535 L 6.69141,-4.63362 L 6.52151,-4.60841 L 6.34999,-4.59999 z
M 108.878,-4.60841 L 108.709,-4.63362 L 108.542,-4.67535 L 108.38,-4.7332 L 108.225,-4.80663 L 108.078,-4.89493
 L 107.94,-4.99722 L 107.813,-5.11255 L 107.697,-5.23981 L 107.595,-5.37775 L 107.507,-5.52505 L 107.433,-5.6803
 L 107.375,-5.842 L 107.334,-6.00859 L 107.308,-6.17847 L 107.3,-6.34999 L 107.308,-6.52151 L 107.334,-6.69141
 L 107.375,-6.85799 L 107.433,-7.01968 L 107.507,-7.17494 L 107.595,-7.32224 L 107.697,-7.46017 L 107.813,-7.58743
 L 107.94,-7.70276 L 108.078,-7.80507 L 108.225,-7.89336 L 108.38,-7.96678 L 108.542,-8.02464 L 108.709,-8.06636
 L 108.878,-8.09157 L 109.05,-8.09999 L 109.222,-8.09157 L 109.391,-8.06636 L 109.558,-8.02464 L 109.72,-7.96678
 L 109.875,-7.89336 L 110.022,-7.80507 L 110.16,-7.70276 L 110.287,-7.58743 L 110.403,-7.46017 L 110.505,-7.32224
 L 110.593,-7.17494 L 110.667,-7.01968 L 110.725,-6.85799 L 110.766,-6.69141 L 110.792,-6.52151 L 110.8,-6.34999
 L 110.792,-6.17847 L 110.766,-6.00859 L 110.725,-5.842 L 110.667,-5.6803 L 110.593,-5.52505 L 110.505,-5.37775
 L 110.403,-5.23981 L 110.287,-5.11255 L 110.16,-4.99722 L 110.022,-4.89493 L 109.875,-4.80663 L 109.72,-4.7332
 L 109.558,-4.67535 L 109.391,-4.63362 L 109.222,-4.60841 L 109.05,-4.59999 z
" stroke="black" fill="lightgray" stroke-width="0.5"/>
</svg>
